<mxfile host="Electron" modified="2024-06-20T11:41:54.835Z" agent="Mozilla/5.0 (Windows NT 10.0; Win64; x64) AppleWebKit/537.36 (KHTML, like Gecko) draw.io/24.5.3 Chrome/124.0.6367.207 Electron/30.0.6 Safari/537.36" version="24.5.3" etag="q9X6PJfQxVDHPUClyGGA" type="device">
  <diagram id="FrwfVXoslgxaiHvmfBSZ" name="第 1 页">
    <mxGraphModel dx="1100" dy="833" grid="1" gridSize="10" guides="1" tooltips="1" connect="1" arrows="1" fold="1" page="1" pageScale="1" pageWidth="827" pageHeight="1169" math="0" shadow="0">
      <root>
        <mxCell id="0" />
        <mxCell id="1" parent="0" />
        <mxCell id="6icutvDndaF-_Th6cAEb-1" value="" style="rounded=0;whiteSpace=wrap;html=1;fillColor=#5D1006;strokeColor=none;fontColor=#000000;" vertex="1" parent="1">
          <mxGeometry x="40" y="290" width="130" height="120" as="geometry" />
        </mxCell>
        <mxCell id="6icutvDndaF-_Th6cAEb-2" value="" style="rounded=0;whiteSpace=wrap;html=1;fillColor=#Bc0112;fontColor=#ffffff;strokeColor=none;" vertex="1" parent="1">
          <mxGeometry x="180" y="290" width="130" height="120" as="geometry" />
        </mxCell>
        <mxCell id="6icutvDndaF-_Th6cAEb-3" value="" style="rounded=0;whiteSpace=wrap;html=1;fillColor=#F24729;fontColor=#ffffff;strokeColor=none;" vertex="1" parent="1">
          <mxGeometry x="320" y="290" width="130" height="120" as="geometry" />
        </mxCell>
        <mxCell id="6icutvDndaF-_Th6cAEb-4" value="" style="rounded=0;whiteSpace=wrap;html=1;fillColor=#957043;fontColor=#000000;strokeColor=#B09500;" vertex="1" parent="1">
          <mxGeometry x="460" y="290" width="130" height="120" as="geometry" />
        </mxCell>
        <mxCell id="6icutvDndaF-_Th6cAEb-5" value="k*t" style="text;html=1;align=center;verticalAlign=middle;resizable=0;points=[];autosize=1;strokeColor=none;fillColor=none;" vertex="1" parent="1">
          <mxGeometry x="20" y="418" width="40" height="30" as="geometry" />
        </mxCell>
        <mxCell id="6icutvDndaF-_Th6cAEb-6" value="（k+1）*t" style="text;html=1;align=center;verticalAlign=middle;resizable=0;points=[];autosize=1;strokeColor=none;fillColor=none;" vertex="1" parent="1">
          <mxGeometry x="130" y="418" width="80" height="30" as="geometry" />
        </mxCell>
        <mxCell id="6icutvDndaF-_Th6cAEb-7" value="（k+2）*t" style="text;html=1;align=center;verticalAlign=middle;resizable=0;points=[];autosize=1;strokeColor=none;fillColor=none;" vertex="1" parent="1">
          <mxGeometry x="280" y="418" width="80" height="30" as="geometry" />
        </mxCell>
        <mxCell id="6icutvDndaF-_Th6cAEb-8" value="（k+3）*t" style="text;html=1;align=center;verticalAlign=middle;resizable=0;points=[];autosize=1;strokeColor=none;fillColor=none;" vertex="1" parent="1">
          <mxGeometry x="420" y="418" width="80" height="30" as="geometry" />
        </mxCell>
        <mxCell id="6icutvDndaF-_Th6cAEb-9" value="&lt;font color=&quot;#ffffff&quot;&gt;order_j&lt;/font&gt;" style="rounded=1;whiteSpace=wrap;html=1;fillColor=#5D1006;strokeColor=#C73500;fontColor=#000000;" vertex="1" parent="1">
          <mxGeometry x="100" y="310" width="120" height="20" as="geometry" />
        </mxCell>
        <mxCell id="6icutvDndaF-_Th6cAEb-10" value="&lt;font color=&quot;#ffffff&quot;&gt;order_i&lt;/font&gt;" style="rounded=1;whiteSpace=wrap;html=1;fillColor=#5D1006;strokeColor=#C73500;fontColor=#000000;" vertex="1" parent="1">
          <mxGeometry x="80" y="340" width="100" height="20" as="geometry" />
        </mxCell>
        <mxCell id="6icutvDndaF-_Th6cAEb-12" value="order_l" style="rounded=1;whiteSpace=wrap;html=1;fillColor=#BC0112;strokeColor=#3A5431;fontColor=#ffffff;" vertex="1" parent="1">
          <mxGeometry x="200" y="340" width="130" height="20" as="geometry" />
        </mxCell>
        <mxCell id="6icutvDndaF-_Th6cAEb-13" value="order_k" style="rounded=1;whiteSpace=wrap;html=1;fillColor=#BC0112;strokeColor=#3A5431;fontColor=#ffffff;" vertex="1" parent="1">
          <mxGeometry x="230" y="310" width="250" height="20" as="geometry" />
        </mxCell>
        <mxCell id="6icutvDndaF-_Th6cAEb-14" value="order_m" style="rounded=1;whiteSpace=wrap;html=1;fillColor=#F24729;strokeColor=#432D57;fontColor=#ffffff;" vertex="1" parent="1">
          <mxGeometry x="350" y="340" width="50" height="20" as="geometry" />
        </mxCell>
        <mxCell id="6icutvDndaF-_Th6cAEb-15" value="order_a" style="rounded=1;whiteSpace=wrap;html=1;fillColor=#957043;strokeColor=#432D57;fontColor=#ffffff;" vertex="1" parent="1">
          <mxGeometry x="475" y="370" width="125" height="20" as="geometry" />
        </mxCell>
        <mxCell id="6icutvDndaF-_Th6cAEb-17" value="order_n" style="rounded=1;whiteSpace=wrap;html=1;fillColor=#F24729;strokeColor=#432D57;fontColor=#ffffff;" vertex="1" parent="1">
          <mxGeometry x="420" y="340" width="115" height="20" as="geometry" />
        </mxCell>
        <mxCell id="6icutvDndaF-_Th6cAEb-18" value="&lt;font color=&quot;#ffffff&quot;&gt;order_b&lt;/font&gt;" style="rounded=1;whiteSpace=wrap;html=1;fillColor=#5D1006;strokeColor=#C73500;fontColor=#000000;" vertex="1" parent="1">
          <mxGeometry x="90" y="370" width="380" height="20" as="geometry" />
        </mxCell>
      </root>
    </mxGraphModel>
  </diagram>
</mxfile>
